<?xml version="1.0" encoding="utf-8"?>
<!-- Generator: Adobe Illustrator 22.1.0, SVG Export Plug-In . SVG Version: 6.00 Build 0)  -->
<svg version="1.1" id="Layer_1" xmlns="http://www.w3.org/2000/svg" xmlns:xlink="http://www.w3.org/1999/xlink" x="0px" y="0px"
	 viewBox="0 0 286.1 286.1" style="enable-background:new 0 0 286.1 286.1;" xml:space="preserve">
<style type="text/css">
	.st0{fill:none;}
	.st1{display:none;fill:#1B39CE;}
	.st2{fill:#1B39CE;}
	.st3{fill:#FFFFFF;}
</style>
<g>
	<path class="st0" d="M143,27.9c-63.3,0-114.6,51.3-114.6,114.6S79.7,257,143,257s114.6-51.3,114.6-114.6S206.3,27.9,143,27.9z
		 M193.1,179.9l-12.5,12.5c-3.4,3.4-9,3.4-12.5,0l-25.1-25.1l-24.9,24.9c-3.4,3.4-9,3.4-12.5,0l-12.5-12.5c-3.4-3.4-3.4-9,0-12.5
		l24.9-24.9l-24.9-24.9c-3.5-3.4-3.5-9,0-12.5l12.5-12.5c3.4-3.4,9-3.4,12.5,0l24.9,24.9L168,92.5c3.4-3.4,9-3.4,12.5,0l12.5,12.5
		c3.4,3.4,3.4,9,0,12.5L168,142.3l25,25.1C196.5,170.9,196.5,176.4,193.1,179.9z"/>
	<path class="st1" d="M143,1.4C65.1,1.4,2,64.6,2,142.4c0,77.9,63.1,141,141,141s141-63.1,141-141C284.1,64.6,220.9,1.4,143,1.4z
		 M143,257c-63.3,0-114.6-51.3-114.6-114.6S79.7,27.9,143,27.9s114.6,51.3,114.6,114.6S206.3,257,143,257z"/>
</g>
<path class="st2" d="M143,1.4C65.1,1.4,2,64.6,2,142.4c0,77.9,63.1,141,141,141s141-63.1,141-141C284.1,64.6,220.9,1.4,143,1.4z
	 M143,257c-63.3,0-114.6-51.3-114.6-114.6S79.7,27.9,143,27.9s114.6,51.3,114.6,114.6S206.3,257,143,257z"/>
<circle class="st2" cx="143.8" cy="139.9" r="131"/>
<path class="st3" d="M168,142.3l24.9-24.9c3.4-3.5,3.4-9,0-12.5l-12.5-12.5c-3.4-3.4-9-3.4-12.5,0l-24.9,24.9l-24.9-24.9
	c-3.5-3.5-9-3.5-12.5,0L93.2,105c-3.4,3.4-3.4,9,0,12.5l24.9,24.9l-24.9,24.9c-3.4,3.4-3.4,9,0,12.5l12.5,12.5c3.4,3.4,9,3.4,12.5,0
	l24.9-24.9l25.1,25.1c3.5,3.5,9,3.5,12.5,0l12.5-12.5c3.4-3.4,3.4-9,0-12.5L168,142.3z"/>
</svg>
