<?xml version="1.0" encoding="UTF-8"?>
<svg width="16px" height="16px" viewBox="0 0 16 16" version="1.1" xmlns="http://www.w3.org/2000/svg" xmlns:xlink="http://www.w3.org/1999/xlink">
    <!-- Generator: sketchtool 57.1 (101010) - https://sketch.com -->
    <title>C5C6B988-60AC-4F4A-BBCC-2C0A07282FC7</title>
    <desc>Created with sketchtool.</desc>
    <g id="Web-1366" stroke="none" stroke-width="1" fill="none" fill-rule="evenodd">
        <g id="Reg_2_2_16-10-2019" transform="translate(-483.000000, -441.000000)" fill="#F92828" fill-rule="nonzero">
            <g id="Modal-Copy" transform="translate(429.000000, 65.000000)">
                <g id="Требования" transform="translate(54.000000, 350.000000)">
                    <path d="M8,26 C12.4179677,26 16,29.5833226 16,34 C16,38.4192581 12.4179677,42 8,42 C3.58203226,42 0,38.4192581 0,34 C0,29.5833226 3.58203226,26 8,26 Z M8,27 C4.13062037,27 1,30.1369398 1,34 C1,37.8706759 4.13561111,41 8,41 C11.8691204,41 15,37.865912 15,34 C15,30.1135417 11.8441991,27 8,27 Z M8,37 C8.55228125,37 9,37.4477187 9,38 C9,38.5522813 8.55228125,39 8,39 C7.44771875,39 7,38.5522813 7,38 C7,37.4477187 7.44771875,37 8,37 Z M8.5,29 C8.77614237,29 9,29.2238576 9,29.5 L9,35.5 C9,35.7761424 8.77614237,36 8.5,36 L7.5,36 C7.22385763,36 7,35.7761424 7,35.5 L7,29.5 C7,29.2238576 7.22385763,29 7.5,29 L8.5,29 Z" id="Combined-Shape-2"></path>
                </g>
            </g>
        </g>
    </g>
</svg>